<svg width="70" height="70" viewBox="0 0 70 70" fill="none" xmlns="http://www.w3.org/2000/svg">
<g clip-path="url(#clip0_748_3214)">
<path d="M40.1684 60.9825H6.23464C3.92553 60.9825 2.04696 59.104 2.04696 56.795V49.899C2.04696 49.3337 1.58872 48.8755 1.02348 48.8755C0.458247 48.8755 0 49.3337 0 49.899V56.795C0 60.2327 2.79683 63.0295 6.23464 63.0295H40.1685C40.7337 63.0295 41.192 62.5714 41.192 62.006C41.192 61.4406 40.7336 60.9825 40.1684 60.9825Z" fill="#333333"/>
<path d="M63.7655 4.4142H60.7773V3.12707C60.7773 1.47135 59.4303 0.124451 57.7747 0.124451C56.1191 0.124451 54.7721 1.47135 54.7721 3.12707V4.4142H51.6618V3.12707C51.6618 1.47135 50.3148 0.124451 48.6592 0.124451C47.0036 0.124451 45.6566 1.47135 45.6566 3.12707V4.4142H42.5463V3.12707C42.5463 1.47135 41.1992 0.124451 39.5436 0.124451C37.8881 0.124451 36.541 1.47135 36.541 3.12707V4.4142H33.4307V3.12707C33.4307 1.47135 32.0837 0.124451 30.4281 0.124451C28.7725 0.124451 27.4255 1.47135 27.4255 3.12707V4.4142H24.3152V3.12707C24.3152 1.47135 22.9682 0.124451 21.3126 0.124451C19.657 0.124451 18.3099 1.47135 18.3099 3.12707V4.4142H15.1994V3.12707C15.1994 1.47135 13.8523 0.124451 12.1968 0.124451C10.5412 0.124451 9.19414 1.47135 9.19414 3.12707V4.4142H6.23464C2.79683 4.4142 0 7.2109 0 10.6486V45.5258C0 46.0912 0.458247 46.5493 1.02348 46.5493C1.58872 46.5493 2.04696 46.0912 2.04696 45.5258V16.3181H67.953V45.2453C67.953 45.8106 68.4113 46.2687 68.9765 46.2687C69.5417 46.2687 70 45.8106 70 45.2453V10.6486C70 7.2109 67.2032 4.4142 63.7655 4.4142ZM56.8189 3.12707C56.8189 2.60018 57.2477 2.17141 57.7746 2.17141C58.3015 2.17141 58.7302 2.60018 58.7302 3.12707V7.74802C58.7302 8.27491 58.3015 8.70368 57.7746 8.70368C57.2477 8.70368 56.8189 8.27491 56.8189 7.74802V3.12707ZM47.7034 3.12707C47.7034 2.60018 48.1322 2.17141 48.659 2.17141C49.1859 2.17141 49.6147 2.60018 49.6147 3.12707V7.74802C49.6147 8.27491 49.1859 8.70368 48.659 8.70368C48.1322 8.70368 47.7034 8.27491 47.7034 7.74802V3.12707ZM38.5878 3.12707C38.5878 2.60018 39.0166 2.17141 39.5435 2.17141C40.0704 2.17141 40.4992 2.60018 40.4992 3.12707V7.74802C40.4992 8.27491 40.0704 8.70368 39.5435 8.70368C39.0166 8.70368 38.5878 8.27491 38.5878 7.74802V3.12707ZM29.4722 3.12707C29.4722 2.60018 29.9009 2.17141 30.4278 2.17141C30.9547 2.17141 31.3835 2.60018 31.3835 3.12707V7.74802C31.3835 8.27491 30.9547 8.70368 30.4278 8.70368C29.9009 8.70368 29.4722 8.27491 29.4722 7.74802V3.12707ZM20.3566 3.12707C20.3566 2.60018 20.7854 2.17141 21.3123 2.17141C21.8392 2.17141 22.268 2.60018 22.268 3.12707V7.74802C22.268 8.27491 21.8392 8.70368 21.3123 8.70368C20.7854 8.70368 20.3566 8.27491 20.3566 7.74802V3.12707ZM11.2411 3.12707C11.2411 2.60018 11.6699 2.17141 12.1968 2.17141C12.7236 2.17141 13.1524 2.60018 13.1524 3.12707V7.74802C13.1524 8.27491 12.7236 8.70368 12.1968 8.70368C11.6699 8.70368 11.2411 8.27491 11.2411 7.74802V3.12707ZM2.04696 14.2712V10.6486C2.04696 8.3396 3.92553 6.46103 6.23464 6.46103H9.19414V7.74802C9.19414 9.40375 10.5412 10.7506 12.1968 10.7506C13.8523 10.7506 15.1994 9.40375 15.1994 7.74802V6.46103H18.3097V7.74802C18.3097 9.40375 19.6567 10.7506 21.3123 10.7506C22.9679 10.7506 24.3149 9.40375 24.3149 7.74802V6.46103H27.4252V7.74802C27.4252 9.40375 28.7723 10.7506 30.4278 10.7506C32.0834 10.7506 33.4305 9.40375 33.4305 7.74802V6.46103H36.5407V7.74802C36.5407 9.40375 37.8878 10.7506 39.5434 10.7506C41.199 10.7506 42.546 9.40375 42.546 7.74802V6.46103H45.6563V7.74802C45.6563 9.40375 47.0033 10.7506 48.6589 10.7506C50.3145 10.7506 51.6615 9.40375 51.6615 7.74802V6.46103H54.7718V7.74802C54.7718 9.40375 56.1189 10.7506 57.7744 10.7506C59.43 10.7506 60.7771 9.40375 60.7771 7.74802V6.46103H63.7652C66.0742 6.46103 67.9528 8.3396 67.9528 10.6486V14.2712H2.04696Z" fill="#333333"/>
<path d="M63.1524 24.9709V21.327C63.1524 19.8858 61.98 18.7136 60.5388 18.7136H9.46122C8.02002 18.7136 6.84766 19.8859 6.84766 21.327V24.9709C6.84766 26.4121 8.02002 27.5843 9.46122 27.5843H16.2459C16.8112 27.5843 17.2694 27.1262 17.2694 26.5608C17.2694 25.9954 16.8112 25.5373 16.2459 25.5373H9.46122C9.14872 25.5373 8.89462 25.2832 8.89462 24.9709V21.327C8.89462 21.0146 9.14872 20.7605 9.46122 20.7605H60.5388C60.8513 20.7605 61.1054 21.0146 61.1054 21.327V24.9709C61.1054 25.2832 60.8513 25.5373 60.5388 25.5373H20.6191C20.0538 25.5373 19.5956 25.9954 19.5956 26.5608C19.5956 27.1262 20.0538 27.5843 20.6191 27.5843H60.5388C61.98 27.5844 63.1524 26.4121 63.1524 24.9709Z" fill="#333333"/>
<path d="M38.8945 32.5624C38.8945 31.4019 37.9504 30.4577 36.7898 30.4577H33.2103C32.0498 30.4577 31.1057 31.4019 31.1057 32.5624V35.2288C31.1057 36.3893 32.0497 37.3334 33.2103 37.3334H36.7898C37.9503 37.3334 38.8945 36.3893 38.8945 35.2288V32.5624ZM36.8475 35.2288C36.8475 35.2606 36.8217 35.2865 36.7898 35.2865H33.2103C33.1785 35.2865 33.1526 35.2607 33.1526 35.2288V32.5624C33.1526 32.5306 33.1784 32.5047 33.2103 32.5047H36.7898C36.8216 32.5047 36.8475 32.5305 36.8475 32.5624V35.2288Z" fill="#333333"/>
<path d="M28.7487 32.5624C28.7487 31.4019 27.8046 30.4577 26.6441 30.4577H23.0645C21.904 30.4577 20.9598 31.4019 20.9598 32.5624V35.2288C20.9598 36.3893 21.9039 37.3334 23.0645 37.3334H26.6441C27.8046 37.3334 28.7487 36.3893 28.7487 35.2288V32.5624ZM26.7017 35.2288C26.7017 35.2606 26.6759 35.2865 26.6441 35.2865H23.0645C23.0327 35.2865 23.0068 35.2607 23.0068 35.2288V32.5624C23.0068 32.5306 23.0326 32.5047 23.0645 32.5047H26.6441C26.6759 32.5047 26.7017 32.5305 26.7017 32.5624V35.2288Z" fill="#333333"/>
<path d="M18.6028 32.5624C18.6028 31.4019 17.6587 30.4577 16.4982 30.4577H12.9186C11.7581 30.4577 10.8141 31.4019 10.8141 32.5624V35.2288C10.8141 36.3893 11.7581 37.3334 12.9186 37.3334H16.4982C17.6587 37.3334 18.6028 36.3893 18.6028 35.2288V32.5624ZM16.5558 35.2288C16.5558 35.2606 16.53 35.2865 16.4982 35.2865H12.9186C12.8868 35.2865 12.861 35.2607 12.861 35.2288V32.5624C12.861 32.5306 12.8868 32.5047 12.9186 32.5047H16.4982C16.53 32.5047 16.5558 32.5305 16.5558 32.5624V35.2288Z" fill="#333333"/>
<path d="M46.9355 37.3334C48.096 37.3334 49.0402 36.3893 49.0402 35.2288V32.5624C49.0402 31.4019 48.0961 30.4577 46.9355 30.4577H43.3559C42.1954 30.4577 41.2513 31.4019 41.2513 32.5624V35.2288C41.2513 36.3893 42.1954 37.3334 43.3559 37.3334H46.9355ZM43.2983 35.2288V32.5624C43.2983 32.5306 43.3241 32.5047 43.3559 32.5047H46.9355C46.9673 32.5047 46.9932 32.5305 46.9932 32.5624V35.2288C46.9932 35.2606 46.9674 35.2865 46.9355 35.2865H43.3559C43.3242 35.2865 43.2983 35.2607 43.2983 35.2288Z" fill="#333333"/>
<path d="M53.5017 30.4577C52.3412 30.4577 51.3972 31.4019 51.3972 32.5624V35.2288C51.3972 36.3893 52.3412 37.3334 53.5017 37.3334H57.0813C58.2418 37.3334 59.1859 36.3893 59.1859 35.2288V32.5624C59.1859 31.4019 58.2418 30.4577 57.0813 30.4577H53.5017ZM57.1389 32.5624V35.2288C57.1389 35.2606 57.1131 35.2865 57.0813 35.2865H53.5017C53.4699 35.2865 53.4441 35.2607 53.4441 35.2288V32.5624C53.4441 32.5306 53.4699 32.5047 53.5017 32.5047H57.0813C57.1131 32.5047 57.1389 32.5306 57.1389 32.5624Z" fill="#333333"/>
<path d="M38.8945 41.9027C38.8945 40.7422 37.9504 39.7982 36.7898 39.7982H33.2103C32.0498 39.7982 31.1057 40.7422 31.1057 41.9027V44.5692C31.1057 45.7297 32.0497 46.6738 33.2103 46.6738H36.7898C37.9503 46.6738 38.8945 45.7297 38.8945 44.5692V41.9027ZM36.8475 44.5692C36.8475 44.6009 36.8217 44.6268 36.7898 44.6268H33.2103C33.1785 44.6268 33.1526 44.601 33.1526 44.5692V41.9027C33.1526 41.871 33.1784 41.8451 33.2103 41.8451H36.7898C36.8216 41.8451 36.8475 41.8709 36.8475 41.9027V44.5692Z" fill="#333333"/>
<path d="M28.7487 41.9027C28.7487 40.7422 27.8046 39.7982 26.6441 39.7982H23.0645C21.904 39.7982 20.9598 40.7422 20.9598 41.9027V44.5692C20.9598 45.7297 21.9039 46.6738 23.0645 46.6738H26.6441C27.8046 46.6738 28.7487 45.7297 28.7487 44.5692V41.9027ZM26.7017 44.5692C26.7017 44.6009 26.6759 44.6268 26.6441 44.6268H23.0645C23.0327 44.6268 23.0068 44.601 23.0068 44.5692V41.9027C23.0068 41.871 23.0326 41.8451 23.0645 41.8451H26.6441C26.6759 41.8451 26.7017 41.8709 26.7017 41.9027V44.5692Z" fill="#333333"/>
<path d="M18.6028 41.9027C18.6028 40.7422 17.6587 39.7982 16.4982 39.7982H12.9186C11.7581 39.7982 10.8141 40.7422 10.8141 41.9027V44.5692C10.8141 45.7297 11.7581 46.6738 12.9186 46.6738H16.4982C17.6587 46.6738 18.6028 45.7297 18.6028 44.5692V41.9027ZM16.5558 44.5692C16.5558 44.6009 16.53 44.6268 16.4982 44.6268H12.9186C12.8868 44.6268 12.861 44.601 12.861 44.5692V41.9027C12.861 41.871 12.8868 41.8451 12.9186 41.8451H16.4982C16.53 41.8451 16.5558 41.8709 16.5558 41.9027V44.5692Z" fill="#333333"/>
<path d="M36.7898 49.1383H33.2103C32.0498 49.1383 31.1057 50.0825 31.1057 51.243V53.9094C31.1057 55.0699 32.0497 56.0141 33.2103 56.0141H36.7898C37.9503 56.0141 38.8945 55.0699 38.8945 53.9094V51.243C38.8945 50.0825 37.9503 49.1383 36.7898 49.1383ZM36.8475 53.9094C36.8475 53.9412 36.8217 53.9671 36.7898 53.9671H33.2103C33.1785 53.9671 33.1526 53.9413 33.1526 53.9094V51.243C33.1526 51.2112 33.1784 51.1853 33.2103 51.1853H36.7898C36.8216 51.1853 36.8475 51.2111 36.8475 51.243V53.9094Z" fill="#333333"/>
<path d="M26.6441 49.1383H23.0645C21.904 49.1383 20.9598 50.0825 20.9598 51.243V53.9094C20.9598 55.0699 21.9039 56.0141 23.0645 56.0141H26.6441C27.8046 56.0141 28.7487 55.0699 28.7487 53.9094V51.243C28.7487 50.0825 27.8046 49.1383 26.6441 49.1383ZM26.7017 53.9094C26.7017 53.9412 26.6759 53.9671 26.6441 53.9671H23.0645C23.0327 53.9671 23.0068 53.9413 23.0068 53.9094V51.243C23.0068 51.2112 23.0326 51.1853 23.0645 51.1853H26.6441C26.6759 51.1853 26.7017 51.2111 26.7017 51.243V53.9094Z" fill="#333333"/>
<path d="M16.4982 49.1383H12.9186C11.7581 49.1383 10.8141 50.0825 10.8141 51.243V53.9094C10.8141 55.0699 11.7581 56.0141 12.9186 56.0141H16.4982C17.6587 56.0141 18.6028 55.0699 18.6028 53.9094V51.243C18.6028 50.0825 17.6587 49.1383 16.4982 49.1383ZM16.5558 53.9094C16.5558 53.9412 16.53 53.9671 16.4982 53.9671H12.9186C12.8868 53.9671 12.861 53.9413 12.861 53.9094V51.243C12.861 51.2112 12.8868 51.1853 12.9186 51.1853H16.4982C16.53 51.1853 16.5558 51.2111 16.5558 51.243V53.9094Z" fill="#333333"/>
<path d="M55.9836 42.2119C48.3566 42.2119 42.1517 48.4167 42.1517 56.0436C42.1517 63.6704 48.3566 69.8755 55.9836 69.8755C63.6106 69.8755 69.8155 63.6704 69.8155 56.0436C69.8155 48.4167 63.6106 42.2119 55.9836 42.2119ZM55.9836 67.8286C49.4853 67.8286 44.1987 62.542 44.1987 56.0437C44.1987 49.5456 49.4853 44.2589 55.9836 44.2589C62.4819 44.2589 67.7685 49.5456 67.7685 56.0437C67.7685 62.542 62.4819 67.8286 55.9836 67.8286Z" fill="#147AA9"/>
<path d="M62.0669 52.1112H59.9161V49.9604C59.9161 48.9251 59.0739 48.0829 58.0387 48.0829H53.9288C52.8936 48.0829 52.0513 48.9251 52.0513 49.9604V52.1112H49.9005C48.8653 52.1112 48.023 52.9534 48.023 53.9886V58.0985C48.023 59.1339 48.8653 59.9762 49.9005 59.9762H52.0513V62.1268C52.0513 63.1622 52.8936 64.0044 53.9288 64.0044H58.0387C59.0739 64.0044 59.9161 63.1622 59.9161 62.1268V59.9762H62.0669C63.1022 59.9762 63.9444 59.1339 63.9444 58.0985V53.9886C63.9444 52.9534 63.1022 52.1112 62.0669 52.1112ZM61.8975 57.9292H58.8927C58.3274 57.9292 57.8692 58.3873 57.8692 58.9527V61.9575H54.0981V58.9527C54.0981 58.3873 53.6399 57.9292 53.0746 57.9292H50.0698V54.1581H53.0746C53.6399 54.1581 54.0981 53.7 54.0981 53.1347V50.1298H57.8692V53.1347C57.8692 53.7 58.3274 54.1581 58.8927 54.1581H61.8975V57.9292Z" fill="#147AA9"/>
</g>
<defs>
<clipPath id="clip0_748_3214">
<rect width="70" height="70" fill="white"/>
</clipPath>
</defs>
</svg>
