<svg width="70" height="70" fill="none" xmlns="http://www.w3.org/2000/svg"><g clip-path="url(#clip0_748_3214)"><path d="M40.168 60.983H6.235a4.192 4.192 0 01-4.188-4.188v-6.896a1.023 1.023 0 10-2.047 0v6.896a6.242 6.242 0 006.235 6.234h33.934a1.023 1.023 0 100-2.047zM63.766 4.414h-2.989V3.127A3.006 3.006 0 0057.775.124a3.006 3.006 0 00-3.003 3.003v1.287h-3.11V3.127A3.006 3.006 0 0048.659.124a3.006 3.006 0 00-3.002 3.003v1.287h-3.11V3.127A3.006 3.006 0 0039.543.124a3.006 3.006 0 00-3.003 3.003v1.287h-3.11V3.127A3.006 3.006 0 0030.428.124a3.006 3.006 0 00-3.003 3.003v1.287h-3.11V3.127A3.006 3.006 0 0021.313.124a3.006 3.006 0 00-3.003 3.003v1.287H15.2V3.127A3.006 3.006 0 0012.196.124a3.006 3.006 0 00-3.003 3.003v1.287h-2.96A6.242 6.242 0 000 10.65v34.877a1.023 1.023 0 102.047 0V16.318h65.906v28.927a1.023 1.023 0 002.047 0V10.65a6.241 6.241 0 00-6.234-6.235zm-6.947-1.287a.957.957 0 011.911 0v4.621a.957.957 0 01-1.911 0v-4.62zm-9.116 0a.957.957 0 011.912 0v4.621a.957.957 0 01-1.912 0v-4.62zm-9.115 0a.957.957 0 011.911 0v4.621a.957.957 0 01-1.911 0v-4.62zm-9.116 0a.957.957 0 011.912 0v4.621a.957.957 0 01-1.912 0v-4.62zm-9.115 0a.957.957 0 011.911 0v4.621a.957.957 0 01-1.911 0v-4.62zm-9.116 0a.957.957 0 011.911 0v4.621a.957.957 0 01-1.91 0v-4.62zM2.047 14.271V10.65a4.192 4.192 0 014.188-4.19h2.96v1.287a3.006 3.006 0 003.002 3.003 3.006 3.006 0 003.002-3.003V6.461h3.11v1.287a3.006 3.006 0 003.003 3.003 3.006 3.006 0 003.003-3.003V6.461h3.11v1.287a3.006 3.006 0 003.003 3.003 3.006 3.006 0 003.003-3.003V6.461h3.11v1.287a3.006 3.006 0 003.002 3.003 3.006 3.006 0 003.003-3.003V6.461h3.11v1.287a3.006 3.006 0 003.003 3.003 3.006 3.006 0 003.002-3.003V6.461h3.11v1.287a3.006 3.006 0 003.003 3.003 3.006 3.006 0 003.003-3.003V6.461h2.988a4.192 4.192 0 014.188 4.188v3.622H2.047z" fill="#333"/><path d="M63.152 24.97v-3.643a2.616 2.616 0 00-2.613-2.613H9.46a2.616 2.616 0 00-2.613 2.613v3.644a2.616 2.616 0 002.613 2.613h6.785a1.023 1.023 0 100-2.047H9.46a.567.567 0 01-.566-.566v-3.644c0-.312.254-.567.566-.567h51.08c.312 0 .566.255.566.567v3.644a.567.567 0 01-.566.566H20.62a1.023 1.023 0 100 2.047h39.92a2.616 2.616 0 002.613-2.613zm-24.257 7.592c0-1.16-.945-2.104-2.105-2.104h-3.58c-1.16 0-2.104.944-2.104 2.104v2.667c0 1.16.944 2.104 2.104 2.104h3.58c1.16 0 2.105-.944 2.105-2.104v-2.667zm-2.048 2.667a.058.058 0 01-.057.057h-3.58a.058.058 0 01-.057-.057v-2.667c0-.031.025-.057.057-.057h3.58c.032 0 .057.026.057.057v2.667zm-8.098-2.667c0-1.16-.944-2.104-2.105-2.104h-3.58c-1.16 0-2.104.944-2.104 2.104v2.667c0 1.16.944 2.104 2.104 2.104h3.58c1.16 0 2.105-.944 2.105-2.104v-2.667zm-2.047 2.667a.058.058 0 01-.058.057h-3.58a.058.058 0 01-.057-.057v-2.667c0-.031.026-.057.057-.057h3.58c.032 0 .058.026.058.057v2.667zm-8.099-2.667c0-1.16-.944-2.104-2.105-2.104h-3.58c-1.16 0-2.104.944-2.104 2.104v2.667c0 1.16.944 2.104 2.105 2.104h3.58c1.16 0 2.104-.944 2.104-2.104v-2.667zm-2.047 2.667a.058.058 0 01-.058.057h-3.58a.058.058 0 01-.057-.057v-2.667c0-.031.026-.057.058-.057h3.58c.031 0 .057.026.057.057v2.667zm30.379 2.104a2.107 2.107 0 002.105-2.104v-2.667c0-1.16-.944-2.104-2.105-2.104h-3.58c-1.16 0-2.104.944-2.104 2.104v2.667c0 1.16.944 2.104 2.105 2.104h3.58zm-3.637-2.104v-2.667c0-.031.026-.057.058-.057h3.58c.031 0 .057.026.057.057v2.667a.058.058 0 01-.058.057h-3.58a.058.058 0 01-.057-.057zm10.204-4.771c-1.16 0-2.105.944-2.105 2.104v2.667c0 1.16.944 2.104 2.105 2.104h3.58c1.16 0 2.104-.944 2.104-2.104v-2.667c0-1.16-.944-2.104-2.105-2.104h-3.58zm3.637 2.104v2.667a.058.058 0 01-.058.057h-3.58a.058.058 0 01-.057-.057v-2.667c0-.031.026-.057.058-.057h3.58c.031 0 .057.026.057.057zm-18.244 9.341c0-1.16-.945-2.105-2.105-2.105h-3.58c-1.16 0-2.104.944-2.104 2.105v2.666c0 1.16.944 2.105 2.104 2.105h3.58c1.16 0 2.105-.944 2.105-2.105v-2.666zm-2.048 2.666a.058.058 0 01-.057.058h-3.58a.058.058 0 01-.057-.058v-2.666c0-.032.025-.058.057-.058h3.58c.032 0 .057.026.057.058v2.666zm-8.098-2.666c0-1.16-.944-2.105-2.105-2.105h-3.58c-1.16 0-2.104.944-2.104 2.105v2.666c0 1.16.944 2.105 2.104 2.105h3.58c1.16 0 2.105-.944 2.105-2.105v-2.666zm-2.047 2.666a.058.058 0 01-.058.058h-3.58a.058.058 0 01-.057-.058v-2.666c0-.032.026-.058.057-.058h3.58c.032 0 .058.026.058.058v2.666zm-8.099-2.666c0-1.16-.944-2.105-2.105-2.105h-3.58c-1.16 0-2.104.944-2.104 2.105v2.666c0 1.16.944 2.105 2.105 2.105h3.58c1.16 0 2.104-.944 2.104-2.105v-2.666zm-2.047 2.666a.058.058 0 01-.058.058h-3.58a.058.058 0 01-.057-.058v-2.666c0-.032.026-.058.058-.058h3.58c.031 0 .057.026.057.058v2.666zm20.234 4.569h-3.58c-1.16 0-2.104.945-2.104 2.105v2.666c0 1.16.944 2.105 2.104 2.105h3.58c1.16 0 2.105-.944 2.105-2.105v-2.666c0-1.16-.945-2.105-2.105-2.105zm.057 4.771a.058.058 0 01-.057.058h-3.58a.058.058 0 01-.057-.058v-2.666c0-.032.025-.058.057-.058h3.58c.032 0 .057.026.057.058v2.666zm-10.203-4.771h-3.58c-1.16 0-2.104.945-2.104 2.105v2.666c0 1.16.944 2.105 2.104 2.105h3.58c1.16 0 2.105-.944 2.105-2.105v-2.666c0-1.16-.944-2.105-2.105-2.105zm.058 4.771a.058.058 0 01-.058.058h-3.58a.058.058 0 01-.057-.058v-2.666c0-.032.026-.058.057-.058h3.58c.032 0 .058.026.058.058v2.666zm-10.204-4.771h-3.58c-1.16 0-2.104.945-2.104 2.105v2.666c0 1.16.944 2.105 2.105 2.105h3.58c1.16 0 2.104-.944 2.104-2.105v-2.666c0-1.16-.944-2.105-2.105-2.105zm.058 4.771a.058.058 0 01-.058.058h-3.58a.058.058 0 01-.057-.058v-2.666c0-.032.026-.058.058-.058h3.58c.031 0 .057.026.057.058v2.666z" fill="#333"/><path d="M55.984 42.212c-7.627 0-13.832 6.205-13.832 13.832 0 7.626 6.205 13.832 13.832 13.832 7.627 0 13.831-6.206 13.831-13.832 0-7.627-6.204-13.832-13.831-13.832zm0 25.617c-6.499 0-11.785-5.287-11.785-11.785s5.286-11.785 11.785-11.785c6.498 0 11.785 5.287 11.785 11.785s-5.287 11.785-11.785 11.785z" fill="#147AA9"/><path d="M62.067 52.111h-2.15v-2.15a1.88 1.88 0 00-1.878-1.878h-4.11a1.88 1.88 0 00-1.878 1.877v2.151h-2.15a1.88 1.88 0 00-1.878 1.878v4.11a1.88 1.88 0 001.877 1.877h2.151v2.15a1.88 1.88 0 001.878 1.878h4.11a1.88 1.88 0 001.877-1.877v-2.15h2.15a1.88 1.88 0 001.878-1.878v-4.11a1.88 1.88 0 00-1.877-1.878zm-.17 5.818h-3.004c-.566 0-1.024.458-1.024 1.024v3.005H54.1v-3.005c0-.566-.46-1.024-1.024-1.024H50.07v-3.77h3.005c.565 0 1.023-.459 1.023-1.024V50.13h3.771v3.005c0 .565.458 1.023 1.024 1.023h3.005v3.771z" fill="#147AA9"/></g><defs><clipPath id="clip0_748_3214"><path fill="#fff" d="M0 0h70v70H0z"/></clipPath></defs></svg>