<svg width="18" height="18" viewBox="0 0 18 18" fill="none" xmlns="http://www.w3.org/2000/svg">
<path d="M9 18C8.61753 18 8.33068 17.8924 8.13944 17.6773C7.94821 17.4622 7.85259 17.1753 7.85259 16.8167V10.004H1.14741C0.788844 10.004 0.501992 9.90837 0.286853 9.71713C0.0956175 9.5259 0 9.25099 0 8.89243C0 8.53386 0.0956175 8.25896 0.286853 8.06773C0.501992 7.87649 0.788844 7.78088 1.14741 7.78088H7.85259V1.18327C7.85259 0.800797 7.94821 0.513944 8.13944 0.322709C8.33068 0.107569 8.61753 0 9 0C9.38247 0 9.66932 0.107569 9.86056 0.322709C10.0518 0.513944 10.1474 0.800797 10.1474 1.18327V7.78088H16.8526C17.2112 7.78088 17.4861 7.87649 17.6773 8.06773C17.8924 8.25896 18 8.53386 18 8.89243C18 9.25099 17.8924 9.5259 17.6773 9.71713C17.4861 9.90837 17.2112 10.004 16.8526 10.004H10.1474V16.8167C10.1474 17.1753 10.0518 17.4622 9.86056 17.6773C9.66932 17.8924 9.38247 18 9 18Z" fill="#525252"/>
</svg>
