<svg width="18" height="18" fill="none" xmlns="http://www.w3.org/2000/svg"><path d="M9 18c-.382 0-.67-.108-.86-.323-.192-.215-.287-.502-.287-.86v-6.813H1.147c-.358 0-.645-.096-.86-.287C.096 9.526 0 9.251 0 8.892c0-.358.096-.633.287-.824.215-.192.502-.287.86-.287h6.706V1.183c0-.382.095-.67.286-.86C8.331.108 8.618 0 9 0s.67.108.86.323c.192.19.287.478.287.86v6.598h6.706c.358 0 .633.095.824.287.215.191.323.466.323.824 0 .359-.108.634-.323.825-.19.191-.466.287-.824.287h-6.706v6.813c0 .358-.095.645-.286.86-.192.215-.479.323-.861.323z" fill="#525252"/></svg>