<svg width="70" height="70" fill="none" xmlns="http://www.w3.org/2000/svg"><g clip-path="url(#clip0_748_3206)"><path d="M67.979 29.51a3.087 3.087 0 00-4.027-.008L54.118 38a3.644 3.644 0 00-.575-.747 3.612 3.612 0 00-4.868-.235l-8.516 7.013a9.007 9.007 0 00-3.291 6.976v6.064a2.593 2.593 0 00-.899 1.961v9.944a1.024 1.024 0 002.048 0v-9.944c0-.304.248-.552.552-.552h12.505c.304 0 .552.248.552.552v9.944a1.024 1.024 0 002.048 0v-9.944a2.6 2.6 0 00-1.383-2.296v-4.578l2.334-.87a9.686 9.686 0 004.757-3.798l9.15-13.98a3.084 3.084 0 00-.553-4zm-1.16 2.878l-9.15 13.98a7.652 7.652 0 01-3.758 3.001l-4.072 1.516a1.024 1.024 0 00.357 1.984l.047-.002v3.565H38.916v-5.425c0-2.096.928-4.062 2.546-5.395l8.515-7.013a1.571 1.571 0 012.118.103 1.58 1.58 0 010 2.23l-3.36 3.36a1.024 1.024 0 101.449 1.448l3.36-3.36a3.598 3.598 0 001.027-2.065l10.72-9.263a1.03 1.03 0 011.343.003c.384.334.463.907.184 1.333zM33.133 57.07v-6.063a9.015 9.015 0 00-3.225-6.917 1.024 1.024 0 10-1.318 1.568 6.971 6.971 0 012.494 5.349v5.425H19.756v-3.565l.048.002a1.025 1.025 0 00.357-1.984L16.09 49.37a7.651 7.651 0 01-3.758-3l-9.15-13.98c-.279-.427-.2-1 .184-1.334a1.03 1.03 0 011.343-.003l10.723 9.265a3.605 3.605 0 001.025 2.063l3.36 3.36a1.02 1.02 0 001.448 0c.4-.4.4-1.049 0-1.448l-3.36-3.36a1.579 1.579 0 010-2.23 1.572 1.572 0 012.118-.103l5.134 4.228a1.024 1.024 0 101.301-1.581l-5.133-4.228a3.612 3.612 0 00-4.868.235c-.229.229-.42.48-.574.747l-9.836-8.498a3.087 3.087 0 00-4.026.008 3.085 3.085 0 00-.553 4l9.15 13.98a9.686 9.686 0 004.757 3.798l2.334.87v4.578a2.602 2.602 0 00-1.383 2.296v9.944a1.024 1.024 0 002.048 0v-9.944c0-.304.247-.552.552-.552H31.43c.304 0 .552.248.552.552v9.944a1.024 1.024 0 102.048 0v-9.944c0-.783-.35-1.484-.898-1.961z" fill="#333"/><path d="M17.738 32.44c8.944 0 16.22-7.276 16.22-16.22C33.958 7.276 26.682 0 17.738 0 8.794 0 1.518 7.276 1.518 16.22c0 8.944 7.276 16.22 16.22 16.22zm0-30.392c7.814 0 14.172 6.358 14.172 14.172 0 7.815-6.358 14.173-14.172 14.173-7.815 0-14.173-6.358-14.173-14.173 0-7.814 6.358-14.172 14.173-14.172z" fill="#147AA9"/><path d="M14.119 22.653a3.06 3.06 0 002.113.842 3.05 3.05 0 002.196-.924l2.175-2.224a1.024 1.024 0 10-1.464-1.432l-2.175 2.224a1.017 1.017 0 01-.732.308c-.263 0-.514-.1-.705-.28l-3.072-2.912 1.41-1.487 1.192 1.13c.633.6 1.643.581 2.253-.042l5.985-6.12 1.464 1.433-2.569 2.626a1.024 1.024 0 101.465 1.432l2.877-2.942c.3-.307.463-.712.458-1.141a1.595 1.595 0 00-.483-1.13l-2.097-2.05a1.594 1.594 0 00-1.14-.458c-.43.005-.83.176-1.13.483l-5.99 6.124-1.198-1.135a1.593 1.593 0 00-1.148-.44c-.428.012-.827.19-1.122.5l-2.017 2.13a1.608 1.608 0 00.06 2.27l3.394 3.215z" fill="#147AA9"/><path d="M52.262 32.44c3.806 0 7.507-1.345 10.42-3.789a1.024 1.024 0 00-1.317-1.569 14.183 14.183 0 01-9.103 3.31c-7.814 0-14.172-6.357-14.172-14.171 0-7.815 6.358-14.173 14.172-14.173 7.815 0 14.173 6.358 14.173 14.172 0 2.796-.814 5.5-2.353 7.821a1.024 1.024 0 001.707 1.132 16.15 16.15 0 002.694-8.952C68.483 7.276 61.206 0 52.263 0c-8.945 0-16.221 7.276-16.221 16.22 0 8.944 7.276 16.22 16.22 16.22z" fill="#333"/><path d="M60.592 10.437L58.243 8.03a1.59 1.59 0 00-1.126-.482 1.588 1.588 0 00-1.137.455l-3.717 3.63-3.719-3.631a1.584 1.584 0 00-1.137-.456 1.59 1.59 0 00-1.126.483l-2.349 2.405a1.59 1.59 0 00-.455 1.137c.005.428.176.828.482 1.126l3.607 3.523-3.607 3.522a1.59 1.59 0 00-.482 1.126 1.59 1.59 0 00.455 1.137l2.349 2.405a1.59 1.59 0 001.126.482h.02c.42 0 .816-.16 1.117-.455l3.72-3.631 3.716 3.63a1.604 1.604 0 002.264-.028l2.348-2.405a1.602 1.602 0 00-.027-2.263l-3.605-3.52 3.605-3.521a1.602 1.602 0 00.027-2.263zm-5.813 5.05a1.024 1.024 0 000 1.466l4.035 3.94-1.723 1.765-4.113-4.015a1.024 1.024 0 00-1.43 0l-4.114 4.017-1.724-1.765 4.037-3.942a1.024 1.024 0 000-1.465l-4.037-3.942 1.724-1.765 4.114 4.017a1.024 1.024 0 001.43 0l4.113-4.016 1.723 1.765-4.035 3.94z" fill="#333"/></g><defs><clipPath id="clip0_748_3206"><path fill="#fff" d="M0 0h70v70H0z"/></clipPath></defs></svg>