<svg width="70" height="70" viewBox="0 0 70 70" fill="none" xmlns="http://www.w3.org/2000/svg">
<g clip-path="url(#clip0_748_3206)">
<path d="M67.9789 29.5104C66.8331 28.5125 65.1021 28.509 63.9524 29.5023L54.1176 38C53.9611 37.7307 53.7693 37.4795 53.5432 37.2534C52.2163 35.9265 50.1235 35.8255 48.6751 37.0184L40.1593 44.0313C38.0673 45.7543 36.8675 48.2967 36.8675 51.0068V57.0708C36.3184 57.5479 35.9692 58.2493 35.9692 59.032V68.976C35.9692 69.5415 36.4277 70 36.9932 70C37.5587 70 38.0172 69.5415 38.0172 68.976V59.032C38.0172 58.7277 38.2649 58.48 38.5692 58.48H51.0739C51.3783 58.48 51.6259 58.7277 51.6259 59.032V68.976C51.6259 69.5415 52.0844 70 52.65 70C53.2155 70 53.674 69.5415 53.674 68.976V59.032C53.674 58.038 53.1128 57.1734 52.2911 56.736V52.1576L54.6248 51.2886C56.5889 50.5573 58.2338 49.2439 59.3815 47.4902L68.5316 33.5097C69.3679 32.2322 69.13 30.513 67.9789 29.5104ZM66.8182 32.388L57.6681 46.3685C56.7613 47.7538 55.4621 48.7915 53.9105 49.3692L49.8388 50.8853C49.3088 51.0826 49.0391 51.6723 49.2364 52.2023C49.39 52.6145 49.7808 52.8693 50.1963 52.8693C50.212 52.8693 50.2277 52.868 50.2435 52.8673V56.432H38.9156V51.007C38.9156 48.911 39.8435 46.9447 41.4615 45.6124L49.9771 38.5995C50.6072 38.0806 51.5179 38.1245 52.0951 38.7018C52.71 39.3167 52.71 40.3174 52.0951 40.9323L48.7355 44.292C48.3355 44.6919 48.3355 45.3403 48.7355 45.7401C49.1354 46.14 49.7838 46.14 50.1836 45.7401L53.5432 42.3805C54.109 41.8146 54.464 41.0947 54.5706 40.3153L65.2915 31.0522C65.6748 30.7211 66.2518 30.7222 66.6339 31.0549C67.0177 31.3891 67.0969 31.9623 66.8182 32.388Z" fill="#333333"/>
<path d="M33.1325 57.0708V51.0069C33.1325 48.3328 31.9573 45.8116 29.908 44.0898C29.4751 43.7259 28.8291 43.782 28.4652 44.215C28.1014 44.648 28.1575 45.2939 28.5904 45.6578C30.1754 46.9894 31.0843 48.9391 31.0843 51.0067V56.4317H19.7565V52.867C19.7722 52.8677 19.7881 52.8691 19.8038 52.8691C20.2193 52.8691 20.61 52.6143 20.7636 52.2021C20.9609 51.6721 20.6913 51.0824 20.1612 50.8851L16.0896 49.369C14.538 48.7913 13.2386 47.7536 12.332 46.3683L3.18185 32.3882C2.90305 31.9624 2.98237 31.3892 3.36618 31.0548C3.74821 30.7221 4.32521 30.7208 4.7086 31.0521L15.4315 40.3169C15.5358 41.0722 15.8773 41.8008 16.4569 42.3802L19.8165 45.7398C20.0164 45.9397 20.2785 46.0398 20.5405 46.0398C20.8025 46.0398 21.0647 45.9399 21.2646 45.7398C21.6645 45.3399 21.6645 44.6915 21.2646 44.2917L17.905 40.9321C17.29 40.3172 17.29 39.3165 17.905 38.7015C18.4824 38.1244 19.3928 38.0804 20.0229 38.5993L25.1566 42.8268C25.5931 43.1865 26.2385 43.1238 26.598 42.6873C26.9575 42.2508 26.8951 41.6054 26.4584 41.2459L21.3248 37.0183C19.8762 35.8254 17.7833 35.9264 16.4567 37.2533C16.2284 37.4816 16.0376 37.7333 15.883 38.0004L6.04748 29.5024C4.8977 28.5088 3.16656 28.5124 2.02102 29.5103C0.869883 30.5129 0.632173 32.2322 1.46818 33.5097L10.6183 47.4901C11.766 49.2438 13.4109 50.5572 15.375 51.2885L17.7086 52.1574V56.7359C16.887 57.1734 16.3258 58.0379 16.3258 59.0319V68.9759C16.3258 69.5414 16.7843 69.9999 17.3498 69.9999C17.9154 69.9999 18.3738 69.5414 18.3738 68.9759V59.0319C18.3738 58.7276 18.6214 58.4799 18.9259 58.4799H31.4305C31.7349 58.4799 31.9826 58.7276 31.9826 59.0319V68.9759C31.9826 69.5414 32.441 69.9999 33.0066 69.9999C33.5721 69.9999 34.0306 69.5414 34.0306 68.9759V59.0319C34.0306 58.2493 33.6815 57.548 33.1325 57.0708Z" fill="#333333"/>
<path d="M17.7377 32.4408C26.6817 32.4408 33.9581 25.1643 33.9581 16.2204C33.9581 7.27643 26.6815 0 17.7377 0C8.7939 0 1.51733 7.27643 1.51733 16.2204C1.51733 25.1643 8.79377 32.4408 17.7377 32.4408ZM17.7377 2.04805C25.5524 2.04805 31.91 8.40572 31.91 16.2204C31.91 24.035 25.5524 30.3927 17.7377 30.3927C9.92306 30.3927 3.56538 24.035 3.56538 16.2204C3.56538 8.40572 9.92306 2.04805 17.7377 2.04805Z" fill="#147AA9"/>
<path d="M14.1186 22.6529C14.6918 23.196 15.442 23.495 16.2315 23.495C17.065 23.495 17.8451 23.1668 18.4282 22.5708L20.6032 20.3466C20.9987 19.9424 20.9914 19.2941 20.587 18.8985C20.1827 18.5031 19.5344 18.5104 19.1389 18.9148L16.964 21.1388C16.7696 21.3376 16.5093 21.447 16.2315 21.447C15.9685 21.447 15.7184 21.3473 15.5274 21.1663L12.4553 18.255L13.8642 16.7684L15.0569 17.8988C15.6897 18.4983 16.7004 18.4792 17.3099 17.8561L23.2945 11.7368L24.7587 13.1686L22.1905 15.7948C21.7951 16.1991 21.8023 16.8473 22.2067 17.2429C22.611 17.6383 23.2593 17.6311 23.6548 17.2266L26.5321 14.2846C26.832 13.9778 26.9947 13.5727 26.9899 13.1437C26.9851 12.7147 26.8135 12.3132 26.5067 12.0134L24.4104 9.9636C24.1036 9.66363 23.6991 9.50074 23.2695 9.50579C22.8405 9.51057 22.4391 9.68219 22.1393 9.98886L16.15 16.1131L14.9524 14.9782C14.641 14.6828 14.2333 14.5262 13.8044 14.5382C13.3756 14.5497 12.9769 14.7276 12.6818 15.0389L10.6649 17.1671C10.0558 17.8098 10.0831 18.8284 10.7259 19.4377L14.1186 22.6529Z" fill="#147AA9"/>
<path d="M52.2623 32.4408C56.0684 32.4408 59.7686 31.0949 62.6814 28.6512C63.1146 28.2876 63.1711 27.6418 62.8077 27.2086C62.4442 26.7753 61.7983 26.7189 61.365 27.0823C58.8205 29.2171 55.5879 30.3929 52.2624 30.3929C44.4478 30.3929 38.0901 24.0352 38.0901 16.2205C38.0901 8.40586 44.4476 2.04805 52.2623 2.04805C60.0769 2.04805 66.4346 8.40572 66.4346 16.2204C66.4346 19.0158 65.6211 21.7203 64.0821 24.0413C63.7696 24.5126 63.8982 25.1481 64.3695 25.4608C64.8407 25.7733 65.4763 25.6445 65.7889 25.1733C67.5512 22.5157 68.4827 19.4198 68.4827 16.2205C68.4827 7.27643 61.2062 0 52.2623 0C43.3183 0 36.0419 7.27643 36.0419 16.2204C36.0419 25.1643 43.3183 32.4408 52.2623 32.4408Z" fill="#333333"/>
<path d="M60.5922 10.4367L58.2435 8.03136C57.9448 7.72538 57.5448 7.55416 57.1173 7.54911C56.6898 7.54365 56.2861 7.70558 55.9801 8.00432L52.2631 11.634L48.5441 8.00255C48.2383 7.7038 47.8349 7.54133 47.4069 7.54747C46.9794 7.55252 46.5795 7.72388 46.2809 8.02972L43.9322 10.4349C43.6334 10.7408 43.4718 11.1448 43.4768 11.5723C43.482 11.9996 43.6532 12.3996 43.9591 12.6983L47.5661 16.2205L43.9589 19.7428C43.6531 20.0415 43.4819 20.4413 43.4768 20.8688C43.4718 21.2963 43.6334 21.7002 43.932 22.006L46.2807 24.4112C46.5795 24.7172 46.9794 24.8884 47.4069 24.8935C47.4134 24.8935 47.42 24.8936 47.4266 24.8936C47.8467 24.8936 48.2429 24.7324 48.5442 24.4383L52.2631 20.8068L55.9803 24.4365C56.2861 24.7352 56.692 24.894 57.1175 24.8916C57.545 24.8865 57.9449 24.7151 58.2435 24.4093L60.5922 22.0039C61.2087 21.3726 61.1966 20.3575 60.5653 19.7406L56.9601 16.2201L60.5654 12.6995C61.1966 12.0832 61.2087 11.0679 60.5922 10.4367ZM54.7789 15.4877C54.5816 15.6805 54.4703 15.9446 54.4703 16.2204C54.4703 16.4962 54.5816 16.7604 54.7789 16.9531L58.8142 20.8934L57.0907 22.6584L52.9785 18.6428C52.5807 18.2542 51.9455 18.2544 51.5478 18.6428L47.4337 22.6601L45.7103 20.8953L49.7474 16.9531C49.9447 16.7603 50.056 16.4962 50.056 16.2204C50.056 15.9446 49.9447 15.6804 49.7474 15.4877L45.7103 11.5455L47.4337 9.78066L51.5478 13.798C51.9456 14.1864 52.5807 14.1864 52.9785 13.798L57.0907 9.78244L58.8142 11.5474L54.7789 15.4877Z" fill="#333333"/>
</g>
<defs>
<clipPath id="clip0_748_3206">
<rect width="70" height="70" fill="white"/>
</clipPath>
</defs>
</svg>
