<svg width="119" height="28" fill="none" xmlns="http://www.w3.org/2000/svg"><path d="M8.51 22.27c-.92 0-1.82-.07-2.7-.21-.88-.14-1.71-.35-2.49-.63-.78-.3-1.48-.66-2.1-1.08-.3-.22-.51-.47-.63-.75-.1-.28-.13-.55-.09-.81.06-.28.18-.52.36-.72.18-.2.4-.32.66-.36.26-.06.55.02.87.24.9.58 1.85 1.01 2.85 1.29 1 .26 2.09.39 3.27.39 1.7 0 2.95-.3 3.75-.9.82-.62 1.23-1.42 1.23-2.4 0-.8-.29-1.43-.87-1.89-.58-.48-1.55-.86-2.91-1.14l-3.21-.66c-1.9-.4-3.32-1.06-4.26-1.98C1.32 9.74.86 8.5.86 6.94c0-.94.19-1.8.57-2.58.4-.78.95-1.45 1.65-2.01.7-.58 1.54-1.02 2.52-1.32.98-.3 2.05-.45 3.21-.45 1.24 0 2.4.16 3.48.48 1.1.32 2.08.81 2.94 1.47.26.18.43.41.51.69.1.26.12.52.06.78-.04.26-.15.48-.33.66-.18.18-.41.29-.69.33-.28.02-.59-.08-.93-.3-.78-.52-1.58-.89-2.4-1.11-.8-.24-1.69-.36-2.67-.36s-1.84.15-2.58.45c-.72.3-1.28.72-1.68 1.26-.38.54-.57 1.18-.57 1.92 0 .84.27 1.51.81 2.01.54.5 1.44.88 2.7 1.14l3.18.66c2 .42 3.49 1.07 4.47 1.95.98.88 1.47 2.05 1.47 3.51 0 .94-.19 1.79-.57 2.55a5.7 5.7 0 01-1.62 1.92c-.7.54-1.55.96-2.55 1.26-.98.28-2.09.42-3.33.42zm16.502 0c-1.18 0-2.17-.22-2.97-.66-.78-.44-1.37-1.09-1.77-1.95-.38-.88-.57-1.98-.57-3.3V8.68c0-.52.13-.9.39-1.14.26-.26.63-.39 1.11-.39.48 0 .85.13 1.11.39.28.24.42.62.42 1.14v7.71c0 1.18.24 2.05.72 2.61s1.24.84 2.28.84c1.14 0 2.06-.38 2.76-1.14.72-.78 1.08-1.8 1.08-3.06V8.68c0-.52.13-.9.39-1.14.26-.26.64-.39 1.14-.39.48 0 .85.13 1.11.39.26.24.39.62.39 1.14v12c0 1.02-.49 1.53-1.47 1.53-.46 0-.82-.13-1.08-.39-.26-.28-.39-.66-.39-1.14v-2.55l.39.66c-.4 1.12-1.04 1.98-1.92 2.58-.88.6-1.92.9-3.12.9zm13.36 5.34c-.48 0-.85-.13-1.11-.39-.26-.26-.39-.64-.39-1.14V8.68c0-.5.13-.88.39-1.14.26-.26.62-.39 1.08-.39.48 0 .85.13 1.11.39.26.26.39.64.39 1.14v2.61l-.33-.63c.32-1.08.95-1.94 1.89-2.58.94-.66 2.05-.99 3.33-.99 1.3 0 2.43.31 3.39.93.98.62 1.73 1.49 2.25 2.61.54 1.12.81 2.47.81 4.05 0 1.54-.27 2.89-.81 4.05-.52 1.14-1.26 2.02-2.22 2.64-.96.6-2.1.9-3.42.9-1.26 0-2.36-.32-3.3-.96-.94-.64-1.57-1.49-1.89-2.55h.36v7.32c0 .5-.14.88-.42 1.14-.26.26-.63.39-1.11.39zm5.61-7.68c.84 0 1.57-.2 2.19-.6.62-.4 1.1-.99 1.44-1.77.34-.78.51-1.74.51-2.88 0-1.72-.38-3.02-1.14-3.9-.74-.88-1.74-1.32-3-1.32-.82 0-1.55.2-2.19.6-.62.38-1.1.96-1.44 1.74-.34.78-.51 1.74-.51 2.88 0 1.7.38 3 1.14 3.9.76.9 1.76 1.35 3 1.35zm12.145 2.28c-.5 0-.88-.13-1.14-.39-.26-.28-.39-.66-.39-1.14v-12c0-.5.13-.88.39-1.14.26-.26.62-.39 1.08-.39.48 0 .84.13 1.08.39.26.26.39.64.39 1.14v2.19h-.3c.32-1.2.91-2.11 1.77-2.73.86-.62 1.96-.98 3.3-1.08.36-.02.64.07.84.27.22.2.34.51.36.93.04.42-.05.76-.27 1.02-.22.24-.56.38-1.02.42l-.57.06c-1.3.12-2.29.53-2.97 1.23-.68.7-1.02 1.66-1.02 2.88v6.81c0 .48-.13.86-.39 1.14-.24.26-.62.39-1.14.39zm15.816.06c-1.48 0-2.76-.31-3.84-.93-1.06-.62-1.89-1.5-2.49-2.64-.6-1.14-.9-2.48-.9-4.02 0-1.18.17-2.23.51-3.15.34-.92.82-1.71 1.44-2.37.64-.68 1.4-1.19 2.28-1.53.9-.36 1.9-.54 3-.54 1.46 0 2.72.31 3.78.93 1.08.62 1.92 1.5 2.52 2.64.6 1.12.9 2.46.9 4.02 0 1.16-.17 2.21-.51 3.15-.34.94-.83 1.74-1.47 2.4-.62.66-1.38 1.17-2.28 1.53-.88.34-1.86.51-2.94.51zm0-2.34c.82 0 1.54-.2 2.16-.6.62-.4 1.1-.99 1.44-1.77.36-.78.54-1.74.54-2.88 0-1.72-.38-3.02-1.14-3.9-.76-.88-1.76-1.32-3-1.32-.84 0-1.57.2-2.19.6-.62.38-1.11.96-1.47 1.74-.34.78-.51 1.74-.51 2.88 0 1.7.38 3 1.14 3.9.76.9 1.77 1.35 3.03 1.35zm16.01 2.28c-.42 0-.79-.11-1.11-.33-.3-.22-.55-.56-.75-1.02l-5.01-11.64c-.16-.36-.22-.7-.18-1.02.04-.32.19-.57.45-.75.26-.2.61-.3 1.05-.3.38 0 .68.09.9.27.22.18.42.49.6.93l4.53 11.16h-.84l4.62-11.16c.18-.44.38-.75.6-.93.24-.18.57-.27.99-.27.36 0 .64.1.84.3.22.18.35.43.39.75.06.3.01.63-.15.99l-5.07 11.67c-.18.46-.43.8-.75 1.02-.32.22-.69.33-1.11.33zm11.415-.03c-.48 0-.85-.14-1.11-.42-.26-.3-.39-.71-.39-1.23V8.83c0-.52.13-.92.39-1.2.26-.28.63-.42 1.11-.42.48 0 .85.14 1.11.42.28.28.42.68.42 1.2v11.7c0 .52-.13.93-.39 1.23-.26.28-.64.42-1.14.42zm0-18.09c-.6 0-1.07-.15-1.41-.45-.32-.3-.48-.72-.48-1.26 0-.56.16-.98.48-1.26.34-.3.81-.45 1.41-.45.6 0 1.06.15 1.38.45.34.28.51.7.51 1.26 0 .54-.17.96-.51 1.26-.32.3-.78.45-1.38.45zm11.375 18.18c-1.28 0-2.41-.3-3.39-.9-.96-.62-1.71-1.5-2.25-2.64-.54-1.16-.81-2.51-.81-4.05 0-1.58.27-2.93.81-4.05.54-1.12 1.29-1.99 2.25-2.61.98-.62 2.11-.93 3.39-.93 1.28 0 2.38.32 3.3.96.94.62 1.57 1.46 1.89 2.52h-.33v-8.4c0-.5.13-.88.39-1.14.26-.26.63-.39 1.11-.39.48 0 .85.13 1.11.39.28.26.42.64.42 1.14v18.51c0 .48-.13.86-.39 1.14-.26.26-.63.39-1.11.39-.48 0-.85-.13-1.11-.39-.26-.28-.39-.66-.39-1.14v-2.64l.33.66c-.32 1.08-.95 1.95-1.89 2.61-.92.64-2.03.96-3.33.96zm.78-2.34c.82 0 1.54-.2 2.16-.6.62-.4 1.1-.99 1.44-1.77.36-.78.54-1.74.54-2.88 0-1.72-.38-3.02-1.14-3.9-.76-.88-1.76-1.32-3-1.32-.84 0-1.57.2-2.19.6-.62.38-1.11.96-1.47 1.74-.34.78-.51 1.74-.51 2.88 0 1.7.38 3 1.14 3.9.76.9 1.77 1.35 3.03 1.35z" fill="#147AA9"/></svg>