<svg width="119" height="28" viewBox="0 0 119 28" fill="none" xmlns="http://www.w3.org/2000/svg">
<path d="M8.51 22.27C7.59 22.27 6.69 22.2 5.81 22.06C4.93 21.92 4.1 21.71 3.32 21.43C2.54 21.13 1.84 20.77 1.22 20.35C0.92 20.13 0.71 19.88 0.59 19.6C0.49 19.32 0.46 19.05 0.5 18.79C0.56 18.51 0.68 18.27 0.86 18.07C1.04 17.87 1.26 17.75 1.52 17.71C1.78 17.65 2.07 17.73 2.39 17.95C3.29 18.53 4.24 18.96 5.24 19.24C6.24 19.5 7.33 19.63 8.51 19.63C10.21 19.63 11.46 19.33 12.26 18.73C13.08 18.11 13.49 17.31 13.49 16.33C13.49 15.53 13.2 14.9 12.62 14.44C12.04 13.96 11.07 13.58 9.71 13.3L6.5 12.64C4.6 12.24 3.18 11.58 2.24 10.66C1.32 9.74 0.86 8.5 0.86 6.94C0.86 6 1.05 5.14 1.43 4.36C1.83 3.58 2.38 2.91 3.08 2.35C3.78 1.77 4.62 1.33 5.6 1.03C6.58 0.729998 7.65 0.579999 8.81 0.579999C10.05 0.579999 11.21 0.739999 12.29 1.06C13.39 1.38 14.37 1.87 15.23 2.53C15.49 2.71 15.66 2.94 15.74 3.22C15.84 3.48 15.86 3.74 15.8 4C15.76 4.26 15.65 4.48 15.47 4.66C15.29 4.84 15.06 4.95 14.78 4.99C14.5 5.01 14.19 4.91 13.85 4.69C13.07 4.17 12.27 3.8 11.45 3.58C10.65 3.34 9.76 3.22 8.78 3.22C7.8 3.22 6.94 3.37 6.2 3.67C5.48 3.97 4.92 4.39 4.52 4.93C4.14 5.47 3.95 6.11 3.95 6.85C3.95 7.69 4.22 8.36 4.76 8.86C5.3 9.36 6.2 9.74 7.46 10L10.64 10.66C12.64 11.08 14.13 11.73 15.11 12.61C16.09 13.49 16.58 14.66 16.58 16.12C16.58 17.06 16.39 17.91 16.01 18.67C15.63 19.41 15.09 20.05 14.39 20.59C13.69 21.13 12.84 21.55 11.84 21.85C10.86 22.13 9.75 22.27 8.51 22.27ZM25.0121 22.27C23.8321 22.27 22.8421 22.05 22.0421 21.61C21.2621 21.17 20.6721 20.52 20.2721 19.66C19.8921 18.78 19.7021 17.68 19.7021 16.36V8.68C19.7021 8.16 19.8321 7.78 20.0921 7.54C20.3521 7.28 20.7221 7.15 21.2021 7.15C21.6821 7.15 22.0521 7.28 22.3121 7.54C22.5921 7.78 22.7321 8.16 22.7321 8.68V16.39C22.7321 17.57 22.9721 18.44 23.4521 19C23.9321 19.56 24.6921 19.84 25.7321 19.84C26.8721 19.84 27.7921 19.46 28.4921 18.7C29.2121 17.92 29.5721 16.9 29.5721 15.64V8.68C29.5721 8.16 29.7021 7.78 29.9621 7.54C30.2221 7.28 30.6021 7.15 31.1021 7.15C31.5821 7.15 31.9521 7.28 32.2121 7.54C32.4721 7.78 32.6021 8.16 32.6021 8.68V20.68C32.6021 21.7 32.1121 22.21 31.1321 22.21C30.6721 22.21 30.3121 22.08 30.0521 21.82C29.7921 21.54 29.6621 21.16 29.6621 20.68V18.13L30.0521 18.79C29.6521 19.91 29.0121 20.77 28.1321 21.37C27.2521 21.97 26.2121 22.27 25.0121 22.27ZM38.3722 27.61C37.8922 27.61 37.5222 27.48 37.2622 27.22C37.0022 26.96 36.8722 26.58 36.8722 26.08V8.68C36.8722 8.18 37.0022 7.8 37.2622 7.54C37.5222 7.28 37.8822 7.15 38.3422 7.15C38.8222 7.15 39.1922 7.28 39.4522 7.54C39.7122 7.8 39.8422 8.18 39.8422 8.68V11.29L39.5122 10.66C39.8322 9.58 40.4622 8.72 41.4022 8.08C42.3422 7.42 43.4522 7.09 44.7322 7.09C46.0322 7.09 47.1622 7.4 48.1222 8.02C49.1022 8.64 49.8522 9.51 50.3722 10.63C50.9122 11.75 51.1822 13.1 51.1822 14.68C51.1822 16.22 50.9122 17.57 50.3722 18.73C49.8522 19.87 49.1122 20.75 48.1522 21.37C47.1922 21.97 46.0522 22.27 44.7322 22.27C43.4722 22.27 42.3722 21.95 41.4322 21.31C40.4922 20.67 39.8622 19.82 39.5422 18.76H39.9022V26.08C39.9022 26.58 39.7622 26.96 39.4822 27.22C39.2222 27.48 38.8522 27.61 38.3722 27.61ZM43.9822 19.93C44.8222 19.93 45.5522 19.73 46.1722 19.33C46.7922 18.93 47.2722 18.34 47.6122 17.56C47.9522 16.78 48.1222 15.82 48.1222 14.68C48.1222 12.96 47.7422 11.66 46.9822 10.78C46.2422 9.9 45.2422 9.46 43.9822 9.46C43.1622 9.46 42.4322 9.66 41.7922 10.06C41.1722 10.44 40.6922 11.02 40.3522 11.8C40.0122 12.58 39.8422 13.54 39.8422 14.68C39.8422 16.38 40.2222 17.68 40.9822 18.58C41.7422 19.48 42.7422 19.93 43.9822 19.93ZM56.1268 22.21C55.6268 22.21 55.2468 22.08 54.9868 21.82C54.7268 21.54 54.5968 21.16 54.5968 20.68V8.68C54.5968 8.18 54.7268 7.8 54.9868 7.54C55.2468 7.28 55.6068 7.15 56.0668 7.15C56.5468 7.15 56.9068 7.28 57.1468 7.54C57.4068 7.8 57.5368 8.18 57.5368 8.68V10.87H57.2368C57.5568 9.67 58.1468 8.76 59.0068 8.14C59.8668 7.52 60.9668 7.16 62.3068 7.06C62.6668 7.04 62.9468 7.13 63.1468 7.33C63.3668 7.53 63.4868 7.84 63.5068 8.26C63.5468 8.68 63.4568 9.02 63.2368 9.28C63.0168 9.52 62.6768 9.66 62.2168 9.7L61.6468 9.76C60.3468 9.88 59.3568 10.29 58.6768 10.99C57.9968 11.69 57.6568 12.65 57.6568 13.87V20.68C57.6568 21.16 57.5268 21.54 57.2668 21.82C57.0268 22.08 56.6468 22.21 56.1268 22.21ZM71.9431 22.27C70.4631 22.27 69.1831 21.96 68.1031 21.34C67.0431 20.72 66.2131 19.84 65.6131 18.7C65.0131 17.56 64.7131 16.22 64.7131 14.68C64.7131 13.5 64.8831 12.45 65.2231 11.53C65.5631 10.61 66.0431 9.82 66.6631 9.16C67.3031 8.48 68.0631 7.97 68.9431 7.63C69.8431 7.27 70.8431 7.09 71.9431 7.09C73.4031 7.09 74.6631 7.4 75.7231 8.02C76.8031 8.64 77.6431 9.52 78.2431 10.66C78.8431 11.78 79.1431 13.12 79.1431 14.68C79.1431 15.84 78.9731 16.89 78.6331 17.83C78.2931 18.77 77.8031 19.57 77.1631 20.23C76.5431 20.89 75.7831 21.4 74.8831 21.76C74.0031 22.1 73.0231 22.27 71.9431 22.27ZM71.9431 19.93C72.7631 19.93 73.4831 19.73 74.1031 19.33C74.7231 18.93 75.2031 18.34 75.5431 17.56C75.9031 16.78 76.0831 15.82 76.0831 14.68C76.0831 12.96 75.7031 11.66 74.9431 10.78C74.1831 9.9 73.1831 9.46 71.9431 9.46C71.1031 9.46 70.3731 9.66 69.7531 10.06C69.1331 10.44 68.6431 11.02 68.2831 11.8C67.9431 12.58 67.7731 13.54 67.7731 14.68C67.7731 16.38 68.1531 17.68 68.9131 18.58C69.6731 19.48 70.6831 19.93 71.9431 19.93ZM87.9523 22.21C87.5323 22.21 87.1623 22.1 86.8423 21.88C86.5423 21.66 86.2923 21.32 86.0923 20.86L81.0823 9.22C80.9223 8.86 80.8623 8.52 80.9023 8.2C80.9423 7.88 81.0923 7.63 81.3523 7.45C81.6123 7.25 81.9623 7.15 82.4023 7.15C82.7823 7.15 83.0823 7.24 83.3023 7.42C83.5223 7.6 83.7223 7.91 83.9023 8.35L88.4323 19.51H87.5923L92.2123 8.35C92.3923 7.91 92.5923 7.6 92.8123 7.42C93.0523 7.24 93.3823 7.15 93.8023 7.15C94.1623 7.15 94.4423 7.25 94.6423 7.45C94.8623 7.63 94.9923 7.88 95.0323 8.2C95.0923 8.5 95.0423 8.83 94.8823 9.19L89.8123 20.86C89.6323 21.32 89.3823 21.66 89.0623 21.88C88.7423 22.1 88.3723 22.21 87.9523 22.21ZM99.3683 22.18C98.8883 22.18 98.5183 22.04 98.2583 21.76C97.9983 21.46 97.8683 21.05 97.8683 20.53V8.83C97.8683 8.31 97.9983 7.91 98.2583 7.63C98.5183 7.35 98.8883 7.21 99.3683 7.21C99.8483 7.21 100.218 7.35 100.478 7.63C100.758 7.91 100.898 8.31 100.898 8.83V20.53C100.898 21.05 100.768 21.46 100.508 21.76C100.248 22.04 99.8683 22.18 99.3683 22.18ZM99.3683 4.09C98.7683 4.09 98.2983 3.94 97.9583 3.64C97.6383 3.34 97.4783 2.92 97.4783 2.38C97.4783 1.82 97.6383 1.4 97.9583 1.12C98.2983 0.819999 98.7683 0.669999 99.3683 0.669999C99.9683 0.669999 100.428 0.819999 100.748 1.12C101.088 1.4 101.258 1.82 101.258 2.38C101.258 2.92 101.088 3.34 100.748 3.64C100.428 3.94 99.9683 4.09 99.3683 4.09ZM110.743 22.27C109.463 22.27 108.333 21.97 107.353 21.37C106.393 20.75 105.643 19.87 105.103 18.73C104.563 17.57 104.293 16.22 104.293 14.68C104.293 13.1 104.563 11.75 105.103 10.63C105.643 9.51 106.393 8.64 107.353 8.02C108.333 7.4 109.463 7.09 110.743 7.09C112.023 7.09 113.123 7.41 114.043 8.05C114.983 8.67 115.613 9.51 115.933 10.57H115.603V2.17C115.603 1.67 115.733 1.29 115.993 1.03C116.253 0.769999 116.623 0.64 117.103 0.64C117.583 0.64 117.953 0.769999 118.213 1.03C118.493 1.29 118.633 1.67 118.633 2.17V20.68C118.633 21.16 118.503 21.54 118.243 21.82C117.983 22.08 117.613 22.21 117.133 22.21C116.653 22.21 116.283 22.08 116.023 21.82C115.763 21.54 115.633 21.16 115.633 20.68V18.04L115.963 18.7C115.643 19.78 115.013 20.65 114.073 21.31C113.153 21.95 112.043 22.27 110.743 22.27ZM111.523 19.93C112.343 19.93 113.063 19.73 113.683 19.33C114.303 18.93 114.783 18.34 115.123 17.56C115.483 16.78 115.663 15.82 115.663 14.68C115.663 12.96 115.283 11.66 114.523 10.78C113.763 9.9 112.763 9.46 111.523 9.46C110.683 9.46 109.953 9.66 109.333 10.06C108.713 10.44 108.223 11.02 107.863 11.8C107.523 12.58 107.353 13.54 107.353 14.68C107.353 16.38 107.733 17.68 108.493 18.58C109.253 19.48 110.263 19.93 111.523 19.93Z" fill="#147AA9"/>
</svg>
