<svg width="70" height="70" fill="none" xmlns="http://www.w3.org/2000/svg"><path fill-rule="evenodd" clip-rule="evenodd" d="M40.572 36.006h8.538c.517 5.294 4.992 9.446 10.42 9.446 5.773 0 10.47-4.697 10.47-10.47 0-5.774-4.697-10.471-10.47-10.471-5.428 0-9.903 4.151-10.42 9.445h-8.538V11.57h8.538c.517 5.294 4.992 9.446 10.42 9.446 5.773 0 10.47-4.697 10.47-10.47 0-1.312-.242-2.596-.72-3.816a1.024 1.024 0 10-1.908.747 8.401 8.401 0 01-2.233 9.343 3.72 3.72 0 00-1.657-2.308l-1.258-.788v-.145a5.16 5.16 0 002.498-4.417 5.164 5.164 0 00-5.158-5.159 5.164 5.164 0 00-5.159 5.159 5.16 5.16 0 002.498 4.417v.145l-1.258.788a3.72 3.72 0 00-1.668 2.357 8.402 8.402 0 01-2.869-6.324c0-4.643 3.778-8.421 8.422-8.421a8.41 8.41 0 015.587 2.123 1.025 1.025 0 001.36-1.532A10.456 10.456 0 0059.53.074c-5.428 0-9.903 4.152-10.42 9.446h-9.563c-.566 0-1.025.459-1.025 1.025v23.412H26.5v2.049h12.022v23.45c0 .566.459 1.024 1.025 1.024h9.563c.517 5.295 4.992 9.446 10.42 9.446 5.773 0 10.47-4.697 10.47-10.47 0-5.774-4.697-10.47-10.47-10.47-1.542 0-3.03.329-4.422.978a1.025 1.025 0 10.867 1.857 8.347 8.347 0 013.555-.787c4.643 0 8.42 3.778 8.42 8.422a8.4 8.4 0 01-2.811 6.274 3.72 3.72 0 00-1.657-2.308l-1.258-.787v-.145a5.16 5.16 0 002.498-4.418 5.164 5.164 0 00-5.158-5.158 5.164 5.164 0 00-5.159 5.158 5.16 5.16 0 002.498 4.418v.145l-1.258.787a3.72 3.72 0 00-1.668 2.358 8.402 8.402 0 01-2.869-6.324c0-1.903.622-3.7 1.798-5.197a1.025 1.025 0 10-1.612-1.265 10.348 10.348 0 00-2.184 5.437h-8.54V36.006zm15.364 6.116v.473a8.369 8.369 0 003.593.807 8.371 8.371 0 003.662-.839v-.441c0-.588-.297-1.126-.796-1.438l-1.74-1.088a1.024 1.024 0 01-.48-.868v-.01c-.2.024-.404.038-.611.038-.208 0-.411-.014-.612-.038v.01c0 .353-.182.68-.48.868l-1.74 1.088c-.498.312-.796.85-.796 1.438zm.518-8.525a3.113 3.113 0 003.11 3.11 3.113 3.113 0 003.109-3.11 3.113 3.113 0 00-3.11-3.109 3.113 3.113 0 00-3.109 3.11zm11.497 1.384c0-4.644-3.778-8.421-8.421-8.421-4.644 0-8.422 3.778-8.422 8.42a8.402 8.402 0 002.87 6.325 3.72 3.72 0 011.667-2.358l1.258-.787v-.145a5.16 5.16 0 01-2.498-4.418 5.164 5.164 0 015.159-5.158 5.164 5.164 0 015.158 5.158 5.16 5.16 0 01-2.498 4.418v.145l1.258.787a3.72 3.72 0 011.657 2.308 8.401 8.401 0 002.812-6.274zm-5.278-25.82a3.113 3.113 0 00-3.11-3.11 3.113 3.113 0 00-3.109 3.11 3.113 3.113 0 003.11 3.11 3.113 3.113 0 003.109-3.11zm-5.94 7.087c-.5.312-.797.85-.797 1.438v.472a8.368 8.368 0 003.593.808 8.37 8.37 0 003.662-.84v-.44c0-.589-.297-1.126-.796-1.438l-1.74-1.089a1.025 1.025 0 01-.48-.868v-.01a4.925 4.925 0 01-1.223.001v.009c0 .353-.182.681-.48.868l-1.74 1.089zm5.94 41.824a3.113 3.113 0 00-3.11-3.11 3.113 3.113 0 00-3.109 3.11 3.113 3.113 0 003.11 3.11 3.113 3.113 0 003.109-3.11zm-5.94 7.087c-.5.312-.797.85-.797 1.438v.473a8.37 8.37 0 003.593.807 8.371 8.371 0 003.662-.839v-.441c0-.588-.297-1.126-.796-1.438l-1.74-1.088a1.024 1.024 0 01-.48-.868v-.01c-.2.024-.404.038-.611.038-.208 0-.411-.014-.612-.038v.01c0 .352-.182.68-.48.868l-1.74 1.088z" fill="#333"/><path fill-rule="evenodd" clip-rule="evenodd" d="M26.945 33.957a13.4 13.4 0 00-2.366-6.548 1.025 1.025 0 00-1.681 1.171 11.379 11.379 0 012.05 6.538c0 3.44-1.528 6.528-3.937 8.628a4.778 4.778 0 00-.785-2.068 9.362 9.362 0 002.672-6.56c0-5.183-4.216-9.4-9.4-9.4-5.183 0-9.4 4.217-9.4 9.4 0 2.502.984 4.861 2.73 6.616a4.779 4.779 0 00-.755 2.088 11.425 11.425 0 01-4.024-8.704c0-6.313 5.136-11.45 11.45-11.45 2.362 0 4.631.715 6.56 2.066a1.024 1.024 0 101.176-1.678 13.415 13.415 0 00-7.737-2.437C6.055 21.62 0 27.675 0 35.118c0 7.442 6.055 13.498 13.498 13.498 7.145 0 13.01-5.58 13.468-12.61-.027-.396-.025-1.531-.02-2.05zM16.85 39.08l1.892 1.183a7.321 7.321 0 002.108-5.146 7.3 7.3 0 00-.522-2.72l.001.042.001.061a6.787 6.787 0 01-3.48 5.922v.658zm-3.303-11.314A4.74 4.74 0 008.812 32.5a4.74 4.74 0 004.735 4.735A4.74 4.74 0 0018.28 32.5a4.74 4.74 0 00-4.735-4.734zm-6.773 4.388a7.302 7.302 0 00-.626 2.963c0 1.96.774 3.809 2.145 5.183l.004-.002.004-.003 1.942-1.215v-.658a6.787 6.787 0 01-3.469-6.268zM8.09 44.377v.828a11.373 11.373 0 005.41 1.361c1.993 0 3.869-.513 5.503-1.413v-.776c0-.779-.32-1.503-.875-2.02l-.006-.005a2.8 2.8 0 00-.417-.32l-2.423-1.515a1.024 1.024 0 01-.48-.869v-.481a6.799 6.799 0 01-1.255.118 6.82 6.82 0 01-1.255-.118v.481c0 .353-.182.681-.481.869l-2.423 1.516a2.794 2.794 0 00-.448.35 2.747 2.747 0 00-.85 1.994z" fill="#147AA9"/></svg>