<svg width="70" height="70" viewBox="0 0 70 70" fill="none" xmlns="http://www.w3.org/2000/svg">
<path fill-rule="evenodd" clip-rule="evenodd" d="M40.5715 36.0056H49.1099C49.6266 41.2998 54.1019 45.4515 59.5296 45.4515C65.3029 45.4515 70 40.7545 70 34.9811C70 29.2075 65.3029 24.5105 59.5296 24.5105C54.1019 24.5105 49.6266 28.6621 49.1099 33.9565H40.5715V11.5691H49.1099C49.6266 16.8633 54.1019 21.0149 59.5296 21.0149C65.3029 21.0149 70 16.3179 70 10.5445C70 9.23307 69.7576 7.94922 69.2796 6.72861C69.0735 6.20185 68.479 5.94161 67.9521 6.14816C67.4252 6.35444 67.1652 6.94883 67.3716 7.47573C67.7559 8.4574 67.9508 9.48976 67.9508 10.5445C67.9508 13.0352 66.8632 15.2758 65.1387 16.819C64.9158 15.8715 64.3319 15.0427 63.4821 14.5108L62.224 13.7234V13.5785C63.7198 12.6744 64.7219 11.0326 64.7219 9.1608C64.7219 6.31646 62.408 4.00244 59.5636 4.00244C56.7191 4.00244 54.4051 6.31632 54.4051 9.1608C54.4051 11.0325 55.4072 12.6743 56.903 13.5783V13.7233L55.6449 14.5107C54.7805 15.0517 54.1913 15.9002 53.9773 16.8682C52.2204 15.3237 51.1083 13.0621 51.1083 10.5444C51.1083 5.9009 54.8859 2.12296 59.5296 2.12296C61.5906 2.12296 63.5748 2.87705 65.1169 4.24615C65.5401 4.62182 66.1876 4.5833 66.5633 4.16022C66.939 3.737 66.9006 3.08947 66.4774 2.7138C64.5601 1.01165 62.0925 0.0740967 59.5297 0.0740967C54.1021 0.0740967 49.6267 4.22566 49.1101 9.52009H39.547C38.981 9.52009 38.5224 9.97869 38.5224 10.5447V33.9566H26.5V36.0056H38.5223V59.4557C38.5223 60.0217 38.9809 60.4803 39.5469 60.4803H49.1099C49.6266 65.7745 54.1019 69.9261 59.5296 69.9261C65.3029 69.9261 70 65.2291 70 59.4557C70 53.6823 65.3029 48.9853 59.5296 48.9853C57.9883 48.9853 56.5008 49.3147 55.1085 49.9644C54.5956 50.2037 54.3739 50.8134 54.6131 51.3261C54.8526 51.8391 55.4621 52.0609 55.9748 51.8214C57.0939 51.2993 58.29 51.0344 59.5296 51.0344C64.173 51.0344 67.9508 54.8121 67.9508 59.4557C67.9508 61.9464 66.8632 64.1871 65.1387 65.7302C64.9158 64.7828 64.3319 63.954 63.4821 63.4222L62.224 62.6348V62.4898C63.7198 61.5856 64.7219 59.9438 64.7219 58.0722C64.7219 55.2278 62.408 52.9138 59.5636 52.9138C56.7191 52.9138 54.4051 55.2277 54.4051 58.0722C54.4051 59.9438 55.4072 61.5856 56.903 62.4898V62.6349L55.6449 63.4223C54.7805 63.9633 54.1914 64.8116 53.9773 65.7796C52.2204 64.2351 51.1083 61.9736 51.1083 59.4559C51.1083 57.5528 51.7298 55.7559 52.9056 54.2595C53.2552 53.8146 53.1779 53.1705 52.733 52.8209C52.2882 52.4714 51.6439 52.5485 51.2943 52.9936C50.045 54.5836 49.3008 56.4466 49.1099 58.4314H40.5712L40.5715 36.0056ZM55.9359 42.122V42.595C57.0266 43.1119 58.2446 43.4022 59.5294 43.4022C60.841 43.4022 62.0835 43.1004 63.1912 42.5633V42.122C63.1912 41.5339 62.8936 40.9964 62.3949 40.6844L60.6559 39.596C60.3566 39.4087 60.1749 39.0806 60.1749 38.7276V38.7184C59.9742 38.7422 59.7705 38.7559 59.5636 38.7559C59.3565 38.7559 59.1528 38.7422 58.9521 38.7184V38.7276C58.9521 39.0806 58.7704 39.4087 58.4711 39.596L56.7321 40.6844C56.2336 40.9964 55.9359 41.5338 55.9359 42.122ZM56.4543 33.5975C56.4543 35.3119 57.8491 36.7067 59.5637 36.7067C61.278 36.7067 62.6729 35.3119 62.6729 33.5975C62.6729 31.883 61.2781 30.4883 59.5637 30.4883C57.8491 30.4883 56.4543 31.883 56.4543 33.5975ZM67.951 34.9811C67.951 30.3374 64.1732 26.5596 59.5297 26.5596C54.8861 26.5596 51.1084 30.3376 51.1084 34.9809C51.1084 37.4986 52.2205 39.7602 53.9775 41.3047C54.1914 40.3367 54.7806 39.4882 55.6451 38.9472L56.9031 38.1598V38.0149C55.4074 37.1108 54.4052 35.469 54.4052 33.5974C54.4052 30.7529 56.7192 28.439 59.5637 28.439C62.4082 28.439 64.7221 30.753 64.7221 33.5974C64.7221 35.4692 63.7199 37.1109 62.2242 38.015V38.16L63.4822 38.9474C64.3321 39.4792 64.9159 40.308 65.1389 41.2555C66.8633 39.7124 67.951 37.4717 67.951 34.9811ZM62.6729 9.16094C62.6729 7.44649 61.2781 6.05171 59.5637 6.05171C57.8491 6.05171 56.4543 7.44649 56.4543 9.16094C56.4543 10.8754 57.8491 12.2702 59.5637 12.2702C61.2781 12.2702 62.6729 10.8754 62.6729 9.16094ZM56.7321 16.2478C56.2336 16.5598 55.9359 17.0973 55.9359 17.6855L55.9356 18.1584C57.0263 18.6754 58.2445 18.9657 59.5294 18.9657C60.841 18.9657 62.0835 18.6639 63.1912 18.1267V17.6855C63.1912 17.0974 62.8936 16.5598 62.3949 16.2478L60.6559 15.1595C60.3566 14.9722 60.1749 14.644 60.1749 14.291V14.2819C59.9742 14.3056 59.7705 14.3193 59.5636 14.3193C59.3565 14.3193 59.1528 14.3056 58.9521 14.2819V14.291C58.9521 14.644 58.7704 14.9722 58.4711 15.1595L56.7321 16.2478ZM62.6729 58.0722C62.6729 56.3577 61.2781 54.9629 59.5637 54.9629C57.8491 54.9629 56.4543 56.3577 56.4543 58.0722C56.4543 59.7867 57.8491 61.1815 59.5637 61.1815C61.2781 61.1815 62.6729 59.7867 62.6729 58.0722ZM56.7321 65.1593C56.2336 65.4713 55.9359 66.0087 55.9359 66.597L55.9356 67.0698C57.0263 67.5867 58.2445 67.877 59.5294 67.877C60.841 67.877 62.0835 67.5752 63.1912 67.0381V66.597C63.1912 66.0089 62.8936 65.4713 62.3949 65.1593L60.6559 64.0709C60.3566 63.8836 60.1749 63.5555 60.1749 63.2025V63.1934C59.9742 63.2171 59.7705 63.2308 59.5636 63.2308C59.3565 63.2308 59.1528 63.2171 58.9521 63.1934V63.2025C58.9521 63.5555 58.7704 63.8836 58.4711 64.0709L56.7321 65.1593Z" fill="#333333"/>
<path fill-rule="evenodd" clip-rule="evenodd" d="M26.9455 33.9566C26.7452 31.6034 25.9384 29.3597 24.579 27.4088C24.2555 26.9448 23.6169 26.8304 23.1527 27.1541C22.6885 27.4775 22.5744 28.1162 22.8979 28.5804C24.2387 30.5044 24.9475 32.765 24.9475 35.1177C24.9475 38.5578 23.4202 41.646 21.0107 43.7465C20.9131 42.9962 20.6414 42.2912 20.2256 41.6781C21.9352 39.9283 22.8983 37.5894 22.8983 35.1178C22.8983 29.9347 18.6816 25.7179 13.4984 25.7179C8.31514 25.7179 4.09828 29.9346 4.09828 35.1177C4.09828 37.6196 5.08214 39.9792 6.82719 41.7345C6.41927 42.3549 6.1589 43.0666 6.0727 43.8216C3.61291 41.72 2.04914 38.5988 2.04914 35.1176C2.04914 28.8046 7.18524 23.6685 13.4982 23.6685C15.8613 23.6685 18.13 24.3828 20.059 25.7344C20.5226 26.0593 21.1613 25.9466 21.4861 25.4832C21.8108 25.0197 21.6983 24.3809 21.2348 24.0562C18.9595 22.4619 16.2841 21.6193 13.4981 21.6193C6.05521 21.6193 0 27.6747 0 35.1176C0 42.5604 6.05521 48.6158 13.4982 48.6158C20.6428 48.6158 26.5075 43.0361 26.9664 36.0057C26.9395 35.6102 26.9413 34.4749 26.9455 33.9566ZM16.8493 39.0806L18.7405 40.2643C20.0885 38.8937 20.8489 37.0578 20.849 35.1176C20.849 34.1572 20.6638 33.2393 20.3273 32.3975C20.3275 32.4117 20.3278 32.4259 20.3282 32.4401C20.3286 32.4605 20.3291 32.4808 20.3291 32.5012C20.3291 35.0428 18.9233 37.2611 16.8493 38.4228V39.0806ZM13.5455 27.767C10.935 27.767 8.81117 29.8909 8.81117 32.5014C8.81117 35.1118 10.935 37.2357 13.5455 37.2357C16.156 37.2357 18.2798 35.1118 18.2798 32.5014C18.2798 29.8909 16.156 27.767 13.5455 27.767ZM6.77309 32.1549C6.37173 33.0617 6.14742 34.0638 6.14742 35.1177C6.14742 37.078 6.9209 38.927 8.29232 40.3013L8.29629 40.2987L8.30025 40.296L10.2419 39.0807V38.423C8.16774 37.2612 6.76203 35.043 6.76203 32.5014C6.76203 32.385 6.76722 32.2699 6.77309 32.1549ZM8.08878 44.3772V45.2049C9.70077 46.0729 11.5427 46.5667 13.4981 46.5664C15.492 46.5664 17.3678 46.053 19.0022 45.153V44.3771C19.0022 43.5985 18.6821 42.8744 18.1267 42.3572L18.1207 42.3518C17.9936 42.2342 17.8544 42.1271 17.7038 42.0329L15.2811 40.5166C14.9818 40.3293 14.8001 40.0012 14.8001 39.6482V39.1667C14.3932 39.243 13.9743 39.2848 13.5455 39.2848C13.1167 39.2848 12.6977 39.243 12.2909 39.1667V39.6482C12.2909 40.0012 12.1092 40.3293 11.8099 40.5166L9.38725 42.0329C9.23725 42.1267 9.09846 42.2334 8.97182 42.3505C8.96103 42.3615 8.94982 42.3722 8.93862 42.3827C8.39943 42.8981 8.08878 43.611 8.08878 44.3772Z" fill="#147AA9"/>
</svg>
