<svg width="70" height="70" viewBox="0 0 70 70" fill="none" xmlns="http://www.w3.org/2000/svg">
<g clip-path="url(#clip0_748_3170)">
<path d="M16.1745 27.766C15.6934 27.4662 15.0603 27.6131 14.7603 28.0942C12.4093 31.8667 11.1665 36.2195 11.1665 40.6822C11.1665 53.8241 21.8582 64.5158 35.0001 64.5158C48.1419 64.5158 58.8336 53.8241 58.8336 40.6822C58.8336 27.5404 48.1419 16.8487 35.0001 16.8487C28.4145 16.8487 22.0597 19.6135 17.5652 24.4344C17.1786 24.8492 17.2014 25.4987 17.6162 25.8854C18.0308 26.2721 18.6804 26.2493 19.0671 25.8345C23.1746 21.4287 28.982 18.9019 35.0001 18.9019C46.6657 18.9019 56.2175 28.1208 56.7555 39.6556H54.0918C53.5247 39.6556 53.0652 40.1153 53.0652 40.6822C53.0652 41.2492 53.5247 41.7088 54.0918 41.7088H56.7555C56.5114 46.9417 54.4129 51.6979 51.1026 55.333L49.2259 53.4563C48.8248 53.0554 48.1749 53.0554 47.774 53.4563C47.373 53.8572 47.373 54.5072 47.774 54.908L49.6507 56.7848C46.0157 60.0951 41.2594 62.1936 36.0265 62.4377V59.774C36.0265 59.207 35.567 58.7474 34.9999 58.7474C34.433 58.7474 33.9733 59.207 33.9733 59.774V62.4377C22.4384 61.8997 13.2196 52.3477 13.2196 40.6822C13.2196 36.6039 14.3549 32.6266 16.5028 29.1802C16.8027 28.6991 16.6557 28.0659 16.1745 27.766Z" fill="#333333"/>
<path d="M17.4486 47.9629C17.2437 48.4915 17.5063 49.0862 18.0349 49.291L21.1506 50.4983C21.2701 50.5446 21.3958 50.5677 21.5215 50.5677C21.6671 50.5677 21.8126 50.5366 21.9479 50.475C22.1996 50.36 22.3944 50.1483 22.4877 49.8878L23.6163 46.7429C23.8078 46.2092 23.5305 45.6214 22.9968 45.4299C22.4632 45.2384 21.8753 45.5157 21.6838 46.0494L21.3169 47.0719C20.387 45.0825 19.8997 42.9064 19.8997 40.6824C19.8997 32.356 26.6737 25.5821 35.0001 25.5821C39.3255 25.5821 43.3955 27.4282 46.2415 30.6017L45.1601 30.5383C44.5918 30.5044 44.1083 30.9372 44.0752 31.5032C44.0421 32.0692 44.4741 32.555 45.0401 32.5881L48.3757 32.7836C48.3957 32.7847 48.4158 32.7854 48.4357 32.7854C48.6909 32.7854 48.9379 32.6902 49.1274 32.5173C49.3319 32.3308 49.4525 32.0696 49.4617 31.793L49.5731 28.4537C49.592 27.887 49.148 27.4124 48.5813 27.3934C48.0206 27.3756 47.5401 27.8184 47.521 28.3852L47.5025 28.9388C44.285 25.5128 39.7796 23.529 34.9999 23.529C25.5414 23.529 17.8464 31.224 17.8464 40.6825C17.8464 43.0731 18.3422 45.4154 19.2909 47.576L18.7768 47.3769C18.2477 47.1717 17.6534 47.4342 17.4486 47.9629Z" fill="#147AA9"/>
<path d="M41.862 34.184C41.4722 33.7722 40.8223 33.7546 40.4107 34.1444L38.2318 36.2077C37.3224 35.5491 36.2061 35.1592 34.9998 35.1592C31.9544 35.1592 29.4767 37.6369 29.4767 40.6823C29.4767 43.7278 31.9544 46.2055 34.9998 46.2055C38.0452 46.2055 40.5229 43.7278 40.5229 40.6823C40.5229 39.5836 40.1992 38.5597 39.6439 37.6985L41.8226 35.6354C42.2342 35.2455 42.252 34.5957 41.862 34.184ZM34.9999 44.1523C33.0866 44.1523 31.53 42.5957 31.53 40.6823C31.53 38.769 33.0866 37.2124 34.9999 37.2124C36.9132 37.2124 38.4698 38.769 38.4698 40.6823C38.4698 42.5957 36.9132 44.1523 34.9999 44.1523Z" fill="#147AA9"/>
<path d="M59.4386 19.4517C59.908 19.7792 60.4604 19.9555 61.0364 19.9555C61.095 19.9555 61.1538 19.9537 61.2128 19.95C61.962 19.9039 62.6482 19.5688 63.1452 19.0065L63.8501 18.209C64.3473 17.6467 64.5956 16.9245 64.5494 16.1754C64.5033 15.4262 64.1682 14.7399 63.6058 14.2428L63.4024 14.063C62.9775 13.6874 62.3286 13.7277 61.9532 14.1526C61.5778 14.5774 61.6179 15.2261 62.0426 15.6016L62.246 15.7812C62.3973 15.915 62.4876 16.0998 62.4999 16.3014C62.5124 16.5032 62.4456 16.6976 62.3116 16.849L61.6066 17.6464C61.4728 17.7978 61.2881 17.888 61.0864 17.9003C60.8843 17.9132 60.6901 17.846 60.5388 17.7121L54.6636 12.5185C54.3512 12.2423 54.3216 11.7632 54.598 11.4507L55.3029 10.6531C55.4368 10.5017 55.6216 10.4115 55.8232 10.3992C56.0254 10.3866 56.2195 10.4535 56.3707 10.5874L58.7583 12.6981C59.1831 13.0734 59.8319 13.0337 60.2075 12.6088C60.5829 12.1841 60.5431 11.5353 60.1184 11.1598L57.7308 9.04913C57.1686 8.55199 56.4467 8.30451 55.6973 8.34981C54.948 8.39594 54.2618 8.73102 53.7648 9.29333L53.0599 10.0909C52.1073 11.1686 52.135 12.7783 53.0723 13.8245L51.0349 16.1294C47.4816 13.7986 43.4758 12.2794 39.2483 11.6693V8.60414C40.8008 8.53446 42.0434 7.25327 42.0434 5.6838V2.9269C42.0434 1.31295 40.7303 0 39.1165 0H30.8834C29.2694 0 27.9565 1.31295 27.9565 2.9269V5.6838C27.9565 7.25327 29.1991 8.53446 30.7516 8.60414V11.6693C26.5239 12.2792 22.5183 13.7986 18.965 16.1294L16.9274 13.8245C17.8647 12.7782 17.8925 11.1686 16.9398 10.0909L16.2349 9.2936C15.209 8.13272 13.4297 8.02336 12.2688 9.04941L6.39379 14.243C5.83149 14.7401 5.49641 15.4265 5.45028 16.1755C5.40415 16.9245 5.65259 17.6468 6.14946 18.209L6.85439 19.0065C7.35141 19.5688 8.03786 19.9039 8.78687 19.95C8.84586 19.9537 8.90472 19.9555 8.9633 19.9555C9.53916 19.9555 10.0916 19.7792 10.5611 19.4519L12.6038 21.7625C8.1245 27.0471 5.68202 33.6766 5.68202 40.6825C5.68202 48.5135 8.73157 55.8759 14.2689 61.4132C19.8062 66.9506 27.1686 70.0001 34.9996 70.0001C38.3867 70.0001 41.7098 69.4256 44.8768 68.2924C45.4106 68.1013 45.6886 67.5138 45.4975 66.98C45.3064 66.4462 44.7189 66.1682 44.1851 66.3593C41.2407 67.4127 38.1502 67.9469 34.9996 67.9469C19.966 67.9469 7.73508 55.7162 7.73508 40.6824C7.73508 25.6486 19.9663 13.4178 34.9999 13.4178C50.0336 13.4178 62.2645 25.6486 62.2645 40.6824C62.2645 50.6689 56.8127 59.8464 48.0365 64.6336C47.5388 64.9051 47.3554 65.5287 47.627 66.0264C47.8985 66.5241 48.5217 66.7078 49.0199 66.4361C58.4561 61.2888 64.3178 51.4205 64.3178 40.6824C64.3178 33.6766 61.8753 27.0469 57.3961 21.7624L59.4386 19.4517ZM30.0097 5.6838V2.9269C30.0097 2.44509 30.4016 2.0532 30.8834 2.0532H39.1165C39.5983 2.0532 39.9902 2.44522 39.9902 2.9269V5.6838C39.9902 6.16562 39.5983 6.55751 39.1165 6.55751H30.8834C30.4016 6.55764 30.0097 6.16562 30.0097 5.6838ZM8.9132 17.9005C8.71144 17.888 8.52666 17.7978 8.39292 17.6466L7.68799 16.8491C7.41163 16.5365 7.4412 16.0575 7.7537 15.7812L13.6287 10.5875C13.7724 10.4605 13.9512 10.3982 14.1293 10.3982C14.3387 10.3982 14.5473 10.4845 14.6967 10.6534L15.4016 11.4507C15.6779 11.7633 15.6484 12.2423 15.3359 12.5186L9.46086 17.7123C9.30947 17.8461 9.11524 17.9135 8.9132 17.9005ZM14.2692 19.9515C14.176 20.0447 14.0852 20.1398 13.9934 20.2341L12.1135 18.1077L15.4028 15.1998L17.2792 17.3224C16.2271 18.124 15.2206 19.0002 14.2692 19.9515ZM32.8048 11.4451V8.61084H37.1951V11.4451C36.4682 11.3917 35.7362 11.3646 34.9999 11.3646C34.2636 11.3646 33.5316 11.3916 32.8048 11.4451ZM52.7207 17.3224L54.597 15.1998L57.8865 18.1077L56.0066 20.2343C55.9148 20.14 55.824 20.045 55.7308 19.9516C54.7794 19.0002 53.7729 18.124 52.7207 17.3224Z" fill="#333333"/>
</g>
<defs>
<clipPath id="clip0_748_3170">
<rect width="70" height="70" fill="white"/>
</clipPath>
</defs>
</svg>
