<svg width="70" height="70" fill="none" xmlns="http://www.w3.org/2000/svg"><g clip-path="url(#clip0_748_3170)"><path d="M16.174 27.766a1.027 1.027 0 00-1.414.328 23.774 23.774 0 00-3.594 12.588c0 13.142 10.692 23.834 23.834 23.834s23.834-10.692 23.834-23.834S48.142 16.85 35 16.85a23.918 23.918 0 00-17.435 7.585 1.027 1.027 0 001.502 1.4A21.857 21.857 0 0135 18.902c11.666 0 21.218 9.219 21.755 20.754h-2.663a1.027 1.027 0 100 2.053h2.663a21.697 21.697 0 01-5.652 13.624l-1.877-1.877a1.027 1.027 0 00-1.452 1.452l1.877 1.877a21.697 21.697 0 01-13.625 5.653v-2.664a1.027 1.027 0 10-2.053 0v2.664C22.438 61.9 13.22 52.348 13.22 40.682c0-4.078 1.135-8.055 3.283-11.502.3-.48.153-1.114-.329-1.414z" fill="#333"/><path d="M17.449 47.963a1.027 1.027 0 00.586 1.328l3.116 1.207a1.026 1.026 0 001.337-.61l1.128-3.145a1.027 1.027 0 10-1.932-.694l-.367 1.023a15.074 15.074 0 01-1.417-6.39c0-8.326 6.774-15.1 15.1-15.1a15.09 15.09 0 0111.242 5.02l-1.082-.064a1.027 1.027 0 00-.12 2.05l3.336.196.06.001a1.026 1.026 0 001.026-.992l.111-3.34a1.027 1.027 0 00-2.052-.068l-.019.554A17.138 17.138 0 0035 23.529c-9.459 0-17.154 7.695-17.154 17.153 0 2.391.496 4.733 1.445 6.894l-.514-.2a1.026 1.026 0 00-1.328.587z" fill="#147AA9"/><path d="M41.862 34.184a1.027 1.027 0 00-1.451-.04l-2.18 2.064A5.492 5.492 0 0035 35.159a5.53 5.53 0 00-5.523 5.523A5.53 5.53 0 0035 46.205a5.53 5.53 0 005.523-5.523 5.488 5.488 0 00-.88-2.983l2.18-2.064c.411-.39.429-1.04.039-1.451zM35 44.152a3.474 3.474 0 01-3.47-3.47 3.474 3.474 0 013.47-3.47 3.474 3.474 0 013.47 3.47 3.474 3.474 0 01-3.47 3.47z" fill="#147AA9"/><path d="M59.439 19.452a2.781 2.781 0 001.774.498 2.79 2.79 0 001.932-.944l.705-.797a2.79 2.79 0 00.7-2.034 2.791 2.791 0 00-.944-1.932l-.204-.18a1.027 1.027 0 00-1.36 1.539l.204.18a.751.751 0 01.254.52.75.75 0 01-.188.547l-.705.797a.75.75 0 01-.52.254.749.749 0 01-.548-.188l-5.875-5.194a.757.757 0 01-.066-1.067l.705-.798a.751.751 0 01.52-.254.75.75 0 01.548.188l2.387 2.111a1.027 1.027 0 001.36-1.538l-2.387-2.11a2.794 2.794 0 00-2.034-.7 2.79 2.79 0 00-1.932.943l-.705.798a2.813 2.813 0 00.012 3.734l-2.037 2.304a28.994 28.994 0 00-11.787-4.46V8.604a2.928 2.928 0 002.795-2.92V2.927A2.93 2.93 0 0039.117 0h-8.234a2.93 2.93 0 00-2.927 2.927v2.757c0 1.57 1.243 2.85 2.796 2.92v3.065a28.99 28.99 0 00-11.787 4.46l-2.038-2.305a2.813 2.813 0 00.013-3.733l-.705-.797a2.813 2.813 0 00-3.966-.245l-5.875 5.194a2.792 2.792 0 00-.944 1.932 2.792 2.792 0 00.7 2.034l.704.797a2.791 2.791 0 002.11.95c.575 0 1.128-.177 1.597-.504l2.043 2.31c-4.48 5.285-6.922 11.915-6.922 18.92 0 7.831 3.05 15.194 8.587 20.731C19.806 66.951 27.169 70 34.999 70c3.388 0 6.71-.574 9.878-1.708a1.027 1.027 0 10-.692-1.933A27.192 27.192 0 0135 67.947c-15.034 0-27.265-12.23-27.265-27.265C7.735 25.65 19.966 13.418 35 13.418s27.264 12.23 27.264 27.264a27.274 27.274 0 01-14.228 23.952 1.026 1.026 0 10.984 1.802 29.326 29.326 0 0015.298-25.754c0-7.005-2.443-13.635-6.922-18.92l2.043-2.31zM30.009 5.684V2.927c0-.482.393-.874.874-.874h8.234c.481 0 .873.392.873.874v2.757a.875.875 0 01-.873.874h-8.234a.875.875 0 01-.873-.874zM8.914 17.9a.752.752 0 01-.52-.253l-.705-.798a.757.757 0 01.066-1.068l5.875-5.194a.756.756 0 011.068.066l.705.798a.757.757 0 01-.066 1.068L9.46 17.712a.749.749 0 01-.548.189zm5.356 2.052c-.093.093-.184.188-.276.282l-1.88-2.126 3.29-2.908 1.876 2.122a29.778 29.778 0 00-3.01 2.63zm18.536-8.507V8.611h4.39v2.834a29.958 29.958 0 00-4.39 0zm19.916 5.877l1.876-2.122 3.29 2.908-1.88 2.126c-.092-.094-.183-.189-.276-.282a29.757 29.757 0 00-3.01-2.63z" fill="#333"/></g><defs><clipPath id="clip0_748_3170"><path fill="#fff" d="M0 0h70v70H0z"/></clipPath></defs></svg>